<svg xmlns="http://www.w3.org/2000/svg" width="430" height="430" style="width:100%;height:100%;transform:translate3d(0,0,0);content-visibility:visible" viewBox="0 0 430 430"><defs><clipPath id="a"><path d="M0 0h430v430H0z"/></clipPath><clipPath id="b"><path d="M0 0h430v430H0z"/></clipPath></defs><g clip-path="url(#a)"><g clip-path="url(#b)" style="display:block"><path fill="none" stroke="#ED8F66" stroke-linecap="round" stroke-linejoin="round" stroke-width="7" d="M-.007-69.029c-.911-2.284-8.67-22.743 3.257-42.221 9.09-14.844 26.104-23.389 44-22.183" class="tertiary" style="display:block" transform="translate(215 215)"/><path fill="#ED6C66" d="M346.909 235.855s.218 4.184.077 6.632c-1.295 22.416-7.734 40.305-19.824 59.414-13.562 21.436-34.443 43.985-61.672 43.985-7.96 0-15.52-1.78-22.28-4.96-1.89-1.2-3.86-2.29-5.9-3.24-6.77-3.19-14.33-4.97-22.31-4.97-7.92 0-15.42 1.75-22.16 4.9a53 53 0 0 0-6.16 3.38 52.2 52.2 0 0 1-22.13 4.89c-25.28 0-45.398-20.014-58.995-39.698-15.264-22.097-23.485-48.622-23.485-75.472 0-42.183 21.914-100.6 71.98-100.6 5.283 0 10.402.692 15.275 1.987 4.876 1.296 8.284 2.873 9.685 3.503 9.735 4.376 23.504 10.566 36.983 10.365 13.01-.194 26.408-6.353 34.657-10.145 1.356-.624 4.48-2.104 8.969-3.396 0 0 8.046-2.314 16.461-2.314 7.842 0 21.076 2.48 23.264 3.036 1.125.286 3.603 2.341 4.414 2.848 13.992 8.75 47.242 44.75 43.118 98.733-.001.705.033 1.122.033 1.122" class="primary" style="display:block"/><path fill="#2CA48D" d="M193.795 64.489c15.523 7.85 25.235 22.092 26.392 36.312-12.142 7.504-29.363 8.126-44.893.272-15.537-7.857-25.243-22.096-26.396-36.323 12.139-7.497 29.367-8.115 44.897-.261" class="secondary" style="display:block"/><path fill="#2CA48D" d="M181.545 87.739c15.523 7.85 38.642 13.062 38.642 13.062s-24.497 12.393-44.893.272c-27.038-16.068-26.396-36.323-26.396-36.323s17.117 15.135 32.647 22.989" class="secondary" opacity=".5" style="mix-blend-mode:multiply;display:block"/><path fill="#ED6C66" d="M107.93 225.716c-4.43 88.784 62.842 120.17 56.62 120.17-25.28 0-45.398-20.014-58.995-39.698-15.264-22.097-23.485-48.622-23.485-75.472 0-42.183 21.914-100.6 71.98-100.6 5.283 0 10.402.692 15.275 1.987 4.876 1.296 8.284 2.873 9.685 3.503 9.735 4.376-66.328-5.133-71.08 90.11" class="primary" opacity=".5" style="mix-blend-mode:multiply;display:block"/></g></g></svg>