<svg xmlns="http://www.w3.org/2000/svg" width="430" height="430" style="width:100%;height:100%;transform:translate3d(0,0,0);content-visibility:visible" viewBox="0 0 430 430"><defs><filter id="a" width="100%" height="100%" x="0%" y="0%" filterUnits="objectBoundingBox"><feComponentTransfer in="SourceGraphic"><feFuncA tableValues="1.0 0.0" type="table"/></feComponentTransfer></filter><filter id="c" width="100%" height="100%" x="0%" y="0%" filterUnits="objectBoundingBox"><feComponentTransfer in="SourceGraphic"><feFuncA tableValues="1.0 0.0" type="table"/></feComponentTransfer></filter><filter id="e" width="100%" height="100%" x="0%" y="0%" filterUnits="objectBoundingBox"><feComponentTransfer in="SourceGraphic"><feFuncA tableValues="1.0 0.0" type="table"/></feComponentTransfer></filter><filter id="g" width="100%" height="100%" x="0%" y="0%" filterUnits="objectBoundingBox"><feComponentTransfer in="SourceGraphic"><feFuncA tableValues="1.0 0.0" type="table"/></feComponentTransfer></filter><filter id="i" width="100%" height="100%" x="0%" y="0%" filterUnits="objectBoundingBox"><feComponentTransfer in="SourceGraphic"><feFuncA tableValues="1.0 0.0" type="table"/></feComponentTransfer></filter><filter id="k" width="100%" height="100%" x="0%" y="0%" filterUnits="objectBoundingBox"><feComponentTransfer in="SourceGraphic"><feFuncA tableValues="1.0 0.0" type="table"/></feComponentTransfer></filter><filter id="m" width="100%" height="100%" x="0%" y="0%" filterUnits="objectBoundingBox"><feComponentTransfer in="SourceGraphic"><feFuncA tableValues="1.0 0.0" type="table"/></feComponentTransfer></filter><filter id="o" width="100%" height="100%" x="0%" y="0%" filterUnits="objectBoundingBox"><feComponentTransfer in="SourceGraphic"><feFuncA tableValues="1.0 0.0" type="table"/></feComponentTransfer></filter><filter id="q" width="100%" height="100%" x="0%" y="0%" filterUnits="objectBoundingBox"><feComponentTransfer in="SourceGraphic"><feFuncA tableValues="1.0 0.0" type="table"/></feComponentTransfer></filter><filter id="s" width="100%" height="100%" x="0%" y="0%" filterUnits="objectBoundingBox"><feComponentTransfer in="SourceGraphic"><feFuncA tableValues="1.0 0.0" type="table"/></feComponentTransfer></filter><path id="b" style="display:none"/><path id="d" style="display:none"/><path id="f" fill="#F4B69C" d="m29-118.904 33 28.135-.034 76.954c0 33.806-27.413 61.219-61.219 61.219H-.747c-33.806 0-61.219-27.413-61.219-61.219l.034-76.528" class="primary" style="display:block" transform="translate(234.439 185.582)"/><path id="h" fill="#232323" d="m35.264-97.12 8.968.498c43.48 0 92.355 52.67 92.355 96.15V31.04c0 8.459-6.861 15.321-15.32 15.321h-19.43C63.35 49.35 49.07 71.432 16.898 71.432h-33.796c-32.172 0-31.679-13.826-70.166-16.815h-19.43c-8.459 0-15.321-6.861-15.321-15.32V7.785c0-43.48 35.239-78.719 78.719-78.719l8.968-.498" class="tertiary" style="display:block" transform="matrix(.88 0 0 1 225 324.631)"/><path id="j" class="primary" style="display:none"/><path id="l" class="tertiary" style="display:none"/><path id="n" class="primary" style="display:none"/><path id="p" class="tertiary" style="display:none"/><path id="r" class="primary" style="display:none"/><path id="t" class="tertiary" style="display:none"/><mask id="J" mask-type="alpha"><g filter="url(#a)"><path fill="#fff" d="M0 0h430v430H0z" opacity="0"/><use xmlns:ns1="http://www.w3.org/1999/xlink" ns1:href="#b"/></g></mask><mask id="I" mask-type="alpha"><g filter="url(#c)"><path fill="#fff" d="M0 0h430v430H0z" opacity="0"/><use xmlns:ns2="http://www.w3.org/1999/xlink" ns2:href="#d"/></g></mask><mask id="G" mask-type="alpha"><g filter="url(#e)"><path fill="#fff" d="M0 0h430v430H0z" opacity="0"/><use xmlns:ns3="http://www.w3.org/1999/xlink" ns3:href="#f"/></g></mask><mask id="F" mask-type="alpha"><g filter="url(#g)"><path fill="#fff" d="M0 0h430v430H0z" opacity="0"/><use xmlns:ns4="http://www.w3.org/1999/xlink" ns4:href="#h"/></g></mask><mask id="D" mask-type="alpha"><g filter="url(#i)"><path fill="#fff" d="M0 0h430v430H0z" opacity="0"/><use xmlns:ns5="http://www.w3.org/1999/xlink" ns5:href="#j"/></g></mask><mask id="C" mask-type="alpha"><g filter="url(#k)"><path fill="#fff" d="M0 0h430v430H0z" opacity="0"/><use xmlns:ns6="http://www.w3.org/1999/xlink" ns6:href="#l"/></g></mask><mask id="A" mask-type="alpha"><g filter="url(#m)"><path fill="#fff" d="M0 0h430v430H0z" opacity="0"/><use xmlns:ns7="http://www.w3.org/1999/xlink" ns7:href="#n"/></g></mask><mask id="z" mask-type="alpha"><g filter="url(#o)"><path fill="#fff" d="M0 0h430v430H0z" opacity="0"/><use xmlns:ns8="http://www.w3.org/1999/xlink" ns8:href="#p"/></g></mask><mask id="x" mask-type="alpha"><g filter="url(#q)"><path fill="#fff" d="M0 0h430v430H0z" opacity="0"/><use xmlns:ns9="http://www.w3.org/1999/xlink" ns9:href="#r"/></g></mask><mask id="w" mask-type="alpha"><g filter="url(#s)"><path fill="#fff" d="M0 0h430v430H0z" opacity="0"/><use xmlns:ns10="http://www.w3.org/1999/xlink" ns10:href="#t"/></g></mask><clipPath id="u"><path d="M0 0h430v430H0z"/></clipPath><clipPath id="H"><path d="M0 0h430v430H0z"/></clipPath><clipPath id="E"><path d="M0 0h430v430H0z"/></clipPath><clipPath id="B"><path d="M0 0h430v430H0z"/></clipPath><clipPath id="y"><path d="M0 0h430v430H0z"/></clipPath><clipPath id="v"><path d="M0 0h430v430H0z"/></clipPath></defs><g clip-path="url(#u)"><g clip-path="url(#v)" style="display:none"><path class="tertiary" style="display:none"/><g mask="url(#w)" style="mix-blend-mode:multiply;display:none"><path class="tertiary"/></g><g style="display:none"><path fill="none" class="secondary"/><path class="secondary"/><path class="primary"/><path class="primary" style="mix-blend-mode:multiply"/></g><path class="primary" style="display:none"/><g mask="url(#x)" style="mix-blend-mode:multiply;display:none"><path class="primary"/></g><g style="display:none"><path fill="none" class="quaternary"/><path class="quaternary"/></g></g><g clip-path="url(#y)" style="display:none"><path class="tertiary" style="display:none"/><g mask="url(#z)" style="mix-blend-mode:multiply;display:none"><path class="tertiary"/></g><g style="display:none"><path fill="none" class="secondary"/><path class="secondary"/><path class="primary"/><path class="primary" style="mix-blend-mode:multiply"/></g><path class="primary" style="display:none"/><g mask="url(#A)" style="mix-blend-mode:multiply;display:none"><path class="primary"/></g><g style="display:none"><path fill="none" class="quaternary"/><path class="quaternary"/></g></g><g clip-path="url(#B)" style="display:none"><path class="tertiary" style="display:none"/><g mask="url(#C)" style="mix-blend-mode:multiply;display:none"><path class="tertiary"/></g><g style="display:none"><path fill="none" class="secondary"/><path class="secondary"/><path class="primary"/><path class="primary" style="mix-blend-mode:multiply"/></g><path class="primary" style="display:none"/><g mask="url(#D)" style="mix-blend-mode:multiply;display:none"><path class="primary"/></g><g style="display:none"><path fill="none" class="quaternary"/><path class="quaternary"/></g></g><g clip-path="url(#E)" style="display:block"><path fill="#232323" d="m34.128-71.432 8.968.498c43.48 0 78.719 35.239 78.719 78.719v31.512c0 8.459-6.862 15.32-15.321 15.32h-19.43C48.577 57.606 49.07 71.432 16.898 71.432h-33.796c-32.172 0-31.679-13.826-70.166-16.815h-19.43c-8.459 0-15.321-6.861-15.321-15.32V7.785c0-43.48 35.239-78.719 78.719-78.719l8.968-.498" class="tertiary" style="display:block" transform="translate(215 314.631)"/><g mask="url(#F)" opacity=".5" style="mix-blend-mode:multiply;display:block"><path fill="#232323" d="m249.128 243.199 8.968.498c43.48 0 78.719 35.239 78.719 78.719v31.512c0 8.459-6.862 15.32-15.321 15.32h-19.43c-38.487 2.989-37.994 16.815-70.166 16.815h-33.796c-32.172 0-31.679-13.826-70.166-16.815h-19.43c-8.459 0-15.321-6.861-15.321-15.32v-31.512c0-43.48 35.239-78.719 78.719-78.719l8.968-.498" class="tertiary" opacity="1"/></g><g style="display:block"><path fill="#F4B69C" d="M180.871 223.457v19.742c0 17.469 14.168 31.636 31.637 31.636H215c17.469 0 31.637-14.167 31.637-31.636v-18.902" class="primary"/><path fill="#F4B69C" d="M-32.883-25.689v19.742c0 3.53.579 6.926 1.647 10.097 11.357-1.871 15.805-3.149 29.33-6.517l2.417-.602c16.951-4.221 27.11-9.89 32.379-13.529l-.007-8.351" class="primary" opacity=".5" style="mix-blend-mode:multiply" transform="translate(213.754 249.146)"/><path fill="none" stroke="#E8E12F" stroke-linecap="round" stroke-linejoin="round" stroke-width="7" d="M247.633 327.762q0 0 0 0c0-10.129 1.036-18.341 2.313-18.341h.244c.546.017 2.38 1.34 6.007 5.086q9.748-9.528 19.492 0c3.627-3.746 5.461-5.069 6.007-5.086h.244c1.277 0 2.313 8.212 2.313 18.341q0 0 0 0v-1.111 2.242c0 8.943-7.249 16.192-16.192 16.192h-4.235c-8.943 0-16.192-7.249-16.192-16.192v-2.242" class="secondary"/><path fill="#E8E12F" d="M247.633 327.762c0-10.129 1.036-18.341 2.313-18.341h.244c.546.017 2.38 1.34 6.007 5.086q9.748-9.528 19.492 0c3.627-3.746 5.461-5.069 6.007-5.086h.244c1.277 0 2.313 8.212 2.313 18.341v-1.111 2.242c0 8.943-7.249 16.192-16.192 16.192h-4.235c-8.943 0-16.192-7.249-16.192-16.192v-2.242" class="secondary"/></g><path fill="#F4B69C" d="m29-118.904 33 28.135-.034 76.954c0 33.806-27.413 61.219-61.219 61.219H-.747c-33.806 0-61.219-27.413-61.219-61.219l.034-76.528" class="primary" style="display:block" transform="translate(214.439 185.582)"/><g mask="url(#G)" opacity=".5" style="mix-blend-mode:multiply;display:block"><path fill="#F4B69C" d="m243.439 66.678 33 28.135-.034 76.954c0 33.806-27.413 61.219-61.219 61.219h-1.494c-33.806 0-61.219-27.413-61.219-61.219l.034-76.528" class="primary" opacity="1"/></g><g style="display:block"><path fill="none" stroke="#232323" stroke-linecap="round" stroke-linejoin="round" stroke-width="3" d="M276.405 141.312s2.616-39.608-37.989-60.782c0 0-12.393 46.022-89.843 62.061 0 0-26.554-78.193 6.606-97.182 3.715-2.127 9.811-1.91 13.416.398 5.06 3.239 10.136 8.519 13.336 11.244 2.429 2.069 5.541 3.171 8.728 3.015 4.393-.215 10.477-1.475 16.483-4.696 48.052-19.099 76.825 2.881 76.239 31.387-.545 26.527 2.49 48.576-6.976 54.555" class="quaternary"/><path fill="#232323" d="M276.405 141.312s2.616-39.608-37.989-60.782c0 0-12.393 46.022-89.843 62.061 0 0-26.554-78.193 6.606-97.182 3.715-2.127 9.811-1.91 13.416.398 5.06 3.239 10.136 8.519 13.336 11.244 2.429 2.069 5.541 3.171 8.728 3.015 4.393-.215 10.477-1.475 16.483-4.696 48.052-19.099 76.825 2.881 76.239 31.387-.545 26.527 2.49 48.576-6.976 54.555" class="quaternary"/></g></g><g clip-path="url(#H)" style="display:none"><path class="tertiary" style="display:none"/><g mask="url(#I)" style="mix-blend-mode:multiply;display:none"><path class="tertiary"/></g><g style="display:none"><path fill="none" class="secondary"/><path class="secondary"/></g><path class="primary" style="display:none"/><path class="primary" style="mix-blend-mode:multiply;display:none"/><path class="primary" style="display:none"/><g mask="url(#J)" style="mix-blend-mode:multiply;display:none"><path class="primary"/></g><g style="display:none"><path fill="none" class="quaternary"/><path class="quaternary"/></g></g></g></svg>