<svg xmlns="http://www.w3.org/2000/svg" width="500" height="500" style="width:100%;height:100%;transform:translate3d(0,0,0);content-visibility:visible" viewBox="0 0 500 500"><defs><clipPath id="m"><path d="M0 0h500v500H0z"/></clipPath><clipPath id="u"><path d="M0 0h500v500H0z"/></clipPath><clipPath id="s"><path d="M0 0h500v500H0z"/></clipPath><clipPath id="k"><path d="M0 0h500v500H0z"/></clipPath><clipPath id="r"><path d="M0 0h500v500H0z"/></clipPath><clipPath id="p"><path d="M0 0h500v500H0z"/></clipPath><clipPath id="l"><path d="M0 0h500v500H0z"/></clipPath><clipPath id="n"><path d="M0 0h500v500H0z"/></clipPath><filter id="a" width="100%" height="100%" x="0%" y="0%" filterUnits="objectBoundingBox"><feComponentTransfer in="SourceGraphic"><feFuncA tableValues="1.0 0.0" type="table"/></feComponentTransfer></filter><filter id="c" width="100%" height="100%" x="0%" y="0%" filterUnits="objectBoundingBox"><feComponentTransfer in="SourceGraphic"><feFuncA tableValues="1.0 0.0" type="table"/></feComponentTransfer></filter><filter id="f" width="100%" height="100%" x="0%" y="0%" filterUnits="objectBoundingBox"><feComponentTransfer in="SourceGraphic"><feFuncA tableValues="1.0 0.0" type="table"/></feComponentTransfer></filter><filter id="i" width="100%" height="100%" x="0%" y="0%" filterUnits="objectBoundingBox"><feComponentTransfer in="SourceGraphic"><feFuncA tableValues="1.0 0.0" type="table"/></feComponentTransfer></filter><mask id="v" mask-type="alpha"><g filter="url(#a)"><path fill="#fff" d="M0 0h500v500H0z" opacity="0"/><use xmlns:ns1="http://www.w3.org/1999/xlink" ns1:href="#b"/></g></mask><mask id="t" mask-type="alpha"><g filter="url(#c)"><path fill="#fff" d="M0 0h500v500H0z" opacity="0"/><use xmlns:ns2="http://www.w3.org/1999/xlink" ns2:href="#e"/></g></mask><mask id="q" mask-type="alpha"><g filter="url(#f)"><path fill="#fff" d="M0 0h500v500H0z" opacity="0"/><use xmlns:ns3="http://www.w3.org/1999/xlink" ns3:href="#h"/></g></mask><mask id="o" mask-type="alpha"><g filter="url(#i)"><path fill="#fff" d="M0 0h500v500H0z" opacity="0"/><use xmlns:ns4="http://www.w3.org/1999/xlink" ns4:href="#j"/></g></mask><g id="b" class="primary design" style="display:none"><path fill-opacity="0" stroke-linecap="round" stroke-linejoin="round" class="primary"/></g><g id="e" clip-path="url(#k)" style="display:block"><g class="primary design" style="display:block"><path fill-opacity="0" stroke="#232323" stroke-linecap="round" stroke-linejoin="round" stroke-width="41" d="M336.822 198.598 222.098 312.709 169.924 260.6" class="primary"/></g><g class="primary design" style="display:block"><path fill-opacity="0" stroke="#232323" stroke-linecap="round" stroke-linejoin="round" stroke-width="41" d="M253.419 260.347" class="primary"/></g></g><g id="h" clip-path="url(#l)" style="display:none"><g class="primary design" style="display:none"><path fill-opacity="0" stroke-linecap="round" stroke-linejoin="round" class="primary"/></g><g class="primary design" style="display:none"><path fill-opacity="0" stroke-linecap="round" stroke-linejoin="round" class="primary"/></g></g><g id="j" class="primary design" style="display:none"><path fill-opacity="0" stroke-linecap="round" stroke-linejoin="round" class="primary"/></g></defs><g clip-path="url(#m)"><g clip-path="url(#n)" style="display:none"><g class="primary design" style="display:none"><path class="primary"/></g><g class="primary design" mask="url(#o)" style="display:none"><path class="primary"/><path fill="none" class="primary"/></g><g class="primary design" style="display:none"><path class="primary"/></g></g><g clip-path="url(#p)" style="display:none"><g class="primary design" mask="url(#q)" style="display:none"><path class="primary"/><path fill="none" class="primary"/></g><g class="primary design" style="display:none"><path class="primary"/></g><g class="primary design" style="display:none"><path class="primary"/></g></g><g class="primary design" clip-path="url(#r)" style="display:none"><path class="primary"/><path fill="none" class="primary"/></g><g clip-path="url(#s)" style="display:block"><g class="primary design" mask="url(#t)" style="display:block"><path fill="none" stroke="#232323" stroke-linecap="round" stroke-linejoin="round" stroke-width="31.3" d="M57.352 254.659C54.78 148.26 138.949 59.923 245.348 57.351s194.736 81.597 197.308 187.996-81.597 194.736-187.996 197.308S59.924 361.058 57.352 254.659" class="primary"/><path fill="#232323" d="M57.352 254.659C54.78 148.26 138.949 59.923 245.348 57.351s194.736 81.597 197.308 187.996-81.597 194.736-187.996 197.308S59.924 361.058 57.352 254.659" class="primary"/></g><g class="primary design" style="display:none"><path fill="#232323" d="M250 41.7h-5C130.229 44.616 38.993 140.226 41.7 255c2.708 113.106 95.61 203.3 208.3 203.3h5c114.772-2.916 206.008-98.526 203.3-213.3C455.592 131.895 362.69 41.7 250 41.7m-27.912 291.62c-5.416 0-10.624-2.083-14.79-6.04l-52.075-52.284c-8.123-8.124-8.123-21.247 0-29.37 8.124-8.124 21.247-8.124 29.37 0l37.495 37.494 100.192-99.984c8.124-8.124 21.247-8.124 29.37 0 8.124 8.123 8.124 21.246 0 29.37L236.877 327.279c-4.166 3.958-9.373 6.041-14.79 6.041" class="primary"/></g><g class="primary design" style="display:none"><path class="primary"/></g></g><g clip-path="url(#u)" style="display:none"><g class="primary design" mask="url(#v)" style="display:none"><path class="primary"/><path fill="none" class="primary"/></g><g class="primary design" style="display:none"><path class="primary"/></g></g></g></svg>