<svg xmlns="http://www.w3.org/2000/svg" width="430" height="430" style="width:100%;height:100%;transform:translate3d(0,0,0);content-visibility:visible" viewBox="0 0 430 430"><defs><clipPath id="a"><path d="M0 0h430v430H0z"/></clipPath><clipPath id="b"><path d="M0 0h430v430H0z"/></clipPath></defs><g clip-path="url(#a)"><g clip-path="url(#b)" style="display:block"><path fill="#F9E6D1" d="M109.55-100.49v.01l-5.21 56.18-2.47 26.67-10.94 118.12h-.24l-85.96 39H-6.71l-84.12-39h-.24l-10.45-112.77-8.03-86.7" class="tertiary" style="display:block" transform="translate(215.01 246)"/><path fill="#535353" d="M-90.761-25.236H90.761c19.882 0 36 16.118 36 36v11.472a3 3 0 0 1-3 3h-247.522a3 3 0 0 1-3-3V10.764c0-19.882 16.118-36 36-36" class="primary" style="display:block" transform="translate(214.938 371.723)"/><path fill="#535353" d="M30.358 16.667h-60.716a3 3 0 0 1-3-3v-32.834h66.716v32.834a3 3 0 0 1-3 3" class="primary" style="display:block" transform="translate(214.938 210.821)"/><g opacity=".5" style="mix-blend-mode:multiply;display:block"><path fill="#535353" d="M30.358 16.667h-60.716a3 3 0 0 1-3-3v-32.834h66.716v32.834a3 3 0 0 1-3 3" class="primary" opacity="1" style="mix-blend-mode:multiply" transform="translate(214.938 210.821)"/></g><path fill="#535353" d="M39 15.344h-78a3 3 0 0 1-3-3v-30.188h84v30.188a3 3 0 0 1-3 3" class="primary" style="display:block" transform="translate(214.938 178.81)"/><path fill="#535353" d="M21.895 6.241c.059-.109.124-.216.172-.332.044-.108.07-.22.103-.332.032-.107.071-.211.093-.322.03-.153.038-.307.047-.462.004-.071.021-.138.021-.21V-42.75a3.5 3.5 0 1 0-7 0V3.147l-36.653 37.145a3.5 3.5 0 0 0 4.982 4.916l37.646-38.15.016-.017c.042-.043.071-.093.111-.137.112-.125.222-.251.315-.391.058-.087.098-.181.147-.272" class="primary" style="display:block" transform="translate(117.68 205.811)"/><g opacity=".5" style="mix-blend-mode:multiply;display:block"><path fill="#F9E6D1" d="m3.164-99.819-24.347.168 8.03 86.7 10.45 112.77h23.886L10.733-15.935z" class="tertiary" opacity="1" style="mix-blend-mode:multiply" transform="translate(126.643 246.671)"/></g><g opacity=".5" style="mix-blend-mode:multiply;display:block"><path fill="#535353" d="M30.443-25.236H5.557c-19.882 0-36 16.118-36 36v11.472a3 3 0 0 0 3 3h21.886V10.764c0-19.882 16.118-36 36-36" class="primary" opacity="1" style="mix-blend-mode:multiply" transform="translate(118.62 371.723)"/></g><path fill="#232323" d="M67.342 71.212H-68.872c-37.488 0-61.165-34.146-66.657-68.082-5.904-36.488 19.785-68.591 56.435-71.373a1035 1035 0 0 1 156.658 0c23.681 1.798 47.587 17.466 55.479 40.367 14.433 41.886-19.972 99.088-65.701 99.088" class="quaternary" style="display:block" transform="translate(214.938 92.253)"/><g opacity=".5" style="mix-blend-mode:multiply;display:block"><path fill="#232323" d="M-12.427 1.843c-5.138-33.162 13.654-62.846 42.769-71.911q-4.784.318-9.564.68c-36.65 2.782-62.34 34.886-56.436 71.374C-30.166 35.922-6.488 70.068 31 70.068h5.503C9.296 60.928-7.86 31.32-12.427 1.843" class="quaternary" opacity="1" style="mix-blend-mode:multiply" transform="translate(115.066 93.397)"/></g><path fill="#F9E6D1" d="M-38.75 0c0 21.401 17.349 38.75 38.75 38.75S38.75 21.401 38.75 0 21.401-38.75 0-38.75-38.75-21.401-38.75 0" class="tertiary" style="display:block" transform="translate(214.938 91.404)"/><g opacity=".5" style="mix-blend-mode:multiply;display:block"><path fill="#F9E6D1" d="M-9.866 0c0-19.241 14.027-35.198 32.411-38.225a39 39 0 0 0-6.34-.525c-21.401 0-38.75 17.349-38.75 38.75s17.349 38.75 38.75 38.75c2.16 0 4.276-.185 6.34-.525C4.161 35.199-9.866 19.241-9.866 0" class="tertiary" opacity="1" style="mix-blend-mode:multiply" transform="translate(198.732 91.404)"/></g><g fill="none" stroke="#ED8F66" stroke-dasharray="104 40" stroke-dashoffset="-39" stroke-linecap="round" stroke-linejoin="round" stroke-width="7" style="display:block"><path d="M215.125 229v36.375" class="quinary"/><path d="M.125 14v36.375" class="quinary" style="mix-blend-mode:multiply" transform="translate(215 215)"/></g><g style="display:block"><path fill="#232323" d="M216.988 92.135a1.987 1.987 0 1 0-3.974 0 1.987 1.987 0 0 0 3.974 0" class="quaternary"/><path fill="none" stroke="#232323" stroke-linecap="round" stroke-linejoin="round" stroke-width="7" d="M216.988 92.135a1.987 1.987 0 1 0-3.974 0 1.987 1.987 0 0 0 3.974 0m-1.988.116V75.884" class="quaternary"/></g><g style="display:block"><path fill="#C64A15" d="M219.656 347.333h-11.443c-19.815 0-35.879-16.064-35.879-35.879V265.5h83.201v45.954c0 19.815-16.064 35.879-35.879 35.879" class="secondary"/><path fill="#C64A15" fill-opacity=".5" d="M-3.63 5.037v-45.954h-22.887V5.037c0 19.815 16.064 35.88 35.879 35.88h11.443c1.945 0 3.851-.164 5.712-.462C9.427 37.71-3.63 22.901-3.63 5.037" class="secondary" style="mix-blend-mode:multiply" transform="translate(198.633 306.527)"/><path fill="none" stroke="#C64A15" stroke-linecap="round" stroke-linejoin="round" stroke-width="7" d="M255.531 281.06c5.248-2.422 12.252-3.298 17.636-.893 5.442 2.43 10.618 8.71 10.166 16.333-.399 6.732-5.03 11.872-9.5 14-5.447 2.593-12.491 2.051-18.302 1.16" class="secondary"/></g><g style="display:block"><path fill="#C64A15" d="m555.288 350.272-9.704-6.064c-16.804-10.5-21.915-32.636-11.414-49.44l24.351-38.971 70.559 44.09-24.352 38.971c-10.5 16.804-32.636 21.914-49.44 11.414" class="secondary"/><path fill="#C64A15" fill-opacity=".5" d="M-3.63 5.037v-45.954h-22.887V5.037c0 19.815 16.064 35.88 35.879 35.88h11.443c1.945 0 3.851-.164 5.712-.462C9.427 37.71-3.63 22.901-3.63 5.037" class="secondary" style="mix-blend-mode:multiply" transform="rotate(32 -251.463 1127.14)"/><path fill="none" stroke="#C64A15" stroke-linecap="round" stroke-linejoin="round" stroke-width="7" d="M620.831 313.08c5.734.727 12.138 3.696 15.43 8.589 3.327 4.944 4.388 13.013-.035 19.238-3.905 5.498-10.556 7.402-15.475 6.838-5.993-.687-11.68-4.88-16.136-8.714" class="secondary"/></g><g style="display:block"><path fill="none" stroke="#535353" stroke-linecap="round" stroke-linejoin="round" stroke-width="7" d="m248.358 215.882 43.642-.106" class="primary"/><path fill="#232323" d="M305.833 229.215h88.333c7.364 0 13.333-5.969 13.333-13.333s-5.969-13.334-13.333-13.334h-88.333c-7.364 0-13.333 5.97-13.333 13.334s5.969 13.333 13.333 13.333" class="quaternary"/></g></g></g></svg>