<svg xmlns="http://www.w3.org/2000/svg" width="430" height="430" style="width:100%;height:100%;transform:translate3d(0,0,0);content-visibility:visible" viewBox="0 0 430 430"><defs><clipPath id="c"><path d="M0 0h430v430H0z"/></clipPath><clipPath id="f"><path d="M0 0h430v430H0z"/></clipPath><clipPath id="d"><path d="M0 0h430v430H0z"/></clipPath><path id="a" style="display:none"/><path id="b" fill="red" d="m-150-140 .5 190H151l-1-189.75z" style="display:block" transform="translate(215 215)"/><mask id="g" mask-type="alpha"><use xmlns:ns1="http://www.w3.org/1999/xlink" ns1:href="#a"/></mask><mask id="e" mask-type="alpha"><use xmlns:ns2="http://www.w3.org/1999/xlink" ns2:href="#b"/></mask></defs><g clip-path="url(#c)"><g clip-path="url(#d)" style="display:block"><g fill="#E3E3E3" style="display:block"><path d="M248.75 360 245 315h-60l-3.75 45H148a3 3 0 0 0-3 3v9a3 3 0 0 0 3 3h134a3 3 0 0 0 3-3v-9a3 3 0 0 0-3-3z" class="primary"/><path d="m0 30 3.75-45h47.5L50-30h-60l-3.75 45H-47a3 3 0 0 0-3 3v9a3 3 0 0 0 3 3z" class="primary" opacity=".5" style="mix-blend-mode:multiply" transform="translate(195 345)"/></g><g style="display:block"><path fill="#66A0ED" d="M370 70H60v200h310z" class="secondary"/><path fill="#66A0ED" d="M10-95h-20V95h20z" class="secondary" opacity=".5" style="mix-blend-mode:multiply" transform="translate(75 170)"/><path fill="#535353" d="M365 75v190H65V75zM45 265h340V75c0-11.046-8.954-20-20-20H65c-11.046 0-20 8.954-20 20z" class="tertiary"/><path fill="#535353" d="M-20-85v190H0V-85c0-11.046 8.954-20 20-20H0c-11.046 0-20 8.954-20 20" class="tertiary" opacity=".5" style="mix-blend-mode:multiply" transform="translate(65 160)"/><path fill="#E3E3E3" d="M45 295v-30h340v30c0 11.046-8.954 20-20 20H65c-11.046 0-20-8.954-20-20" class="primary"/><path fill="#E3E3E3" d="M-20-25V5c0 11.046 8.954 20 20 20h20C8.954 25 0 16.046 0 5v-30z" class="primary" opacity=".5" style="mix-blend-mode:multiply" transform="translate(65 290)"/></g><g mask="url(#e)" style="display:none"><path fill="none" class="quaternary"/><path class="quaternary"/><path fill="none" class="quaternary"/><path class="quaternary"/><path fill="none" class="quaternary"/><path class="quaternary"/></g><g fill="none" stroke="#E3E3E3" stroke-linecap="round" stroke-linejoin="round" stroke-width="20" style="display:block"><path d="m215.029 290.179-.154-.094" class="primary"/><path stroke-opacity=".5" d="m.029 70.179-.154-.094" class="primary" style="mix-blend-mode:multiply" transform="translate(215 220)"/></g></g><g clip-path="url(#f)" style="display:none"><g style="display:none"><path class="primary"/><path class="primary" style="mix-blend-mode:multiply"/></g><g style="display:none"><path class="secondary"/><path class="secondary" style="mix-blend-mode:multiply"/><path class="tertiary"/><path class="tertiary" style="mix-blend-mode:multiply"/><path class="primary"/><path class="primary" style="mix-blend-mode:multiply"/></g><g mask="url(#g)" style="display:none"><path fill="none" class="secondary"/><path class="secondary"/></g><g fill="none" style="display:none"><path class="primary"/><path class="primary" style="mix-blend-mode:multiply"/></g></g></g></svg>