<svg xmlns="http://www.w3.org/2000/svg" width="430" height="430" style="width:100%;height:100%;transform:translate3d(0,0,0);content-visibility:visible" viewBox="0 0 430 430"><defs><clipPath id="h"><path d="M0 0h430v430H0z"/></clipPath><clipPath id="k"><path d="M0 0h430v430H0z"/></clipPath><clipPath id="e"><path d="M0 0h430v430H0z"/></clipPath><clipPath id="i"><path d="M0 0h430v430H0z"/></clipPath><clipPath id="g"><path d="M0 0h430v430H0z"/></clipPath><mask id="l" mask-type="alpha"><g filter="url(#a)"><path fill="#fff" d="M0 0h430v430H0z" opacity="0"/><use xmlns:ns1="http://www.w3.org/1999/xlink" ns1:href="#b"/></g></mask><mask id="j" mask-type="alpha"><use xmlns:ns2="http://www.w3.org/1999/xlink" ns2:href="#d"/></mask><g id="b" clip-path="url(#e)" style="display:none"><path style="display:none"/><path class="secondary" style="display:none"/></g><g id="d" clip-path="url(#g)" style="display:block"><path fill="#E3E3E3" d="m-61.919 67.394 141.52-141.52-8.78-8.791-2.6-2.59a3 3 0 0 0-4.24 0l-139.4 139.401-4.15 29.07c-.29 1.98 1.41 3.67 3.39 3.39l11.79-1.68z" class="primary" style="display:block" transform="translate(268.535 234.612)"/><path fill="#E8392F" d="M7.655-2.337a5.685 5.685 0 0 1 8.04 0l-8.5-8.5a5.685 5.685 0 0 0-8.04 0l-14.85 14.84 8.5 8.5z" class="secondary" style="display:block" transform="translate(355.066 147.708)"/></g><filter id="a" width="100%" height="100%" x="0%" y="0%" filterUnits="objectBoundingBox"><feComponentTransfer in="SourceGraphic"><feFuncA tableValues="1.0 0.0" type="table"/></feComponentTransfer></filter></defs><g clip-path="url(#h)"><g clip-path="url(#i)" style="display:block"><g style="display:block"><path fill="none" stroke="#E3E3E3" stroke-linecap="round" stroke-linejoin="round" stroke-width="5" d="M84.57 54.89H215l93.4 93.4v223.83c0 1.66-1.34 3-3 3H84.57c-1.66 0-3-1.34-3-3V57.89c0-1.66 1.34-3 3-3" class="primary"/><path fill="#E3E3E3" d="M84.57 54.89H215l93.4 93.4v223.83c0 1.66-1.34 3-3 3H84.57c-1.66 0-3-1.34-3-3V57.89c0-1.66 1.34-3 3-3" class="primary"/></g><g opacity=".5" style="mix-blend-mode:multiply;display:block"><path fill="#E3E3E3" d="m215.31 58.086.06 90.246 89.996.05m3.067.059-92.496-93.434" class="primary"/><path fill="none" stroke="#E3E3E3" stroke-width="5" d="m215.31 58.086.06 90.246 89.996.05m3.067.059-92.496-93.434" class="primary"/><path fill="none" stroke="#E3E3E3" stroke-linecap="round" stroke-linejoin="round" stroke-width="5" d="m215.31 58.086.06 90.246 89.996.05m3.067.059-92.496-93.434" class="primary" opacity="1"/></g><g style="display:block"><path fill="#393346" d="m334.433 146.914-141.55 141.502-4.724 33.022 33.024-4.712 141.542-141.511z" class="tertiary"/><g fill="#E8392F"><path d="m358.017 170.506-18.867-18.874L354 136.788a5.69 5.69 0 0 1 8.046.001l10.821 10.825a5.69 5.69 0 0 1-.001 8.047z" class="secondary"/><path d="m358.017 170.506-18.867-18.874L354 136.788a5.69 5.69 0 0 1 8.046.001l10.821 10.825a5.69 5.69 0 0 1-.001 8.047z" class="secondary"/></g></g><g mask="url(#j)" opacity=".5" style="mix-blend-mode:multiply;display:block"><path fill="#393346" d="m334.433 146.914-141.55 141.502-4.724 33.022 33.024-4.712 141.542-141.511z" class="tertiary" opacity="1"/><g fill="#E8392F" opacity="1"><path d="m358.017 170.506-18.867-18.874L354 136.788a5.69 5.69 0 0 1 8.046.001l10.821 10.825a5.69 5.69 0 0 1-.001 8.047z" class="secondary"/><path d="m358.017 170.506-18.867-18.874L354 136.788a5.69 5.69 0 0 1 8.046.001l10.821 10.825a5.69 5.69 0 0 1-.001 8.047z" class="secondary"/></g></g><path fill="none" stroke="#393346" stroke-linecap="round" stroke-linejoin="round" stroke-width="7" d="M0 0" class="tertiary" style="display:block" transform="translate(204.014 222)"/></g><g clip-path="url(#k)" style="display:none"><g style="display:none"><path class="primary"/><path fill="none" class="primary"/></g><g fill="none" style="display:none"><path class="primary"/><path class="primary"/></g><g style="display:none"><path class="primary"/><path fill="none" class="primary"/><path fill="none" class="primary"/></g><g style="mix-blend-mode:multiply;display:none"><path class="primary"/><path fill="none" class="primary"/><path fill="none" class="primary"/><path fill="none" class="primary"/></g><g style="display:none"><path class="primary"/><path fill="none" class="primary"/></g><g style="display:none"><path class="tertiary"/><path class="secondary"/></g><g mask="url(#l)" style="mix-blend-mode:multiply;display:none"><path class="tertiary"/><path class="secondary"/></g></g></g></svg>