<svg xmlns="http://www.w3.org/2000/svg" width="430" height="430" style="width:100%;height:100%;transform:translate3d(0,0,0);content-visibility:visible" viewBox="0 0 430 430"><defs><clipPath id="a"><path d="M0 0h430v430H0z"/></clipPath><clipPath id="b"><path d="M0 0h430v430H0z"/></clipPath></defs><g clip-path="url(#a)"><g fill="none" stroke-linecap="round" stroke-linejoin="round" clip-path="url(#b)" style="display:block"><path stroke="#121330" stroke-width="7" d="M-133.433-133.433-80.06 0H80.06l53.373 133.433H-80.06" class="secondary" style="display:block" transform="translate(215 215)"/><path stroke="#ED6C66" stroke-width="30" d="M0 0q0 0 0 0" class="primary" style="display:block" transform="translate(81.567 81.567)"/><path stroke="#ED6C66" stroke-width="30" d="M0 0q0 0 0 0" class="primary" style="display:block" transform="translate(135.002 215)"/><path stroke="#ED6C66" stroke-width="30" d="M0 0q0 0 0 0" class="primary" style="display:block" transform="translate(295.06 215)"/><path stroke="#ED6C66" stroke-width="30" d="M0 0q0 0 0 0" class="primary" style="display:block" transform="translate(348.433 348.433)"/><path stroke="#ED6C66" stroke-width="30" d="M0 0q0 0 0 0" class="primary" style="display:block" transform="translate(134.94 348.433)"/></g></g></svg>