<svg xmlns="http://www.w3.org/2000/svg" width="430" height="430" style="width:100%;height:100%;transform:translate3d(0,0,0);content-visibility:visible" viewBox="0 0 430 430"><defs><clipPath id="a"><path d="M0 0h430v430H0z"/></clipPath><clipPath id="e"><path d="M0 0h430v430H0z"/></clipPath><clipPath id="d"><path d="M0 0h430v430H0z"/></clipPath><clipPath id="c"><path d="M0 0h430v430H0z"/></clipPath><clipPath id="b"><path d="M0 0h430v430H0z"/></clipPath></defs><g clip-path="url(#a)"><g clip-path="url(#b)" style="display:none"><path class="primary" style="display:none"/><path class="quaternary" style="display:none"/><path class="primary" style="mix-blend-mode:multiply;display:none"/><g style="display:none"><path class="tertiary"/><path class="tertiary" style="mix-blend-mode:multiply"/></g><g style="display:none"><path class="secondary"/><path class="secondary" style="mix-blend-mode:multiply"/></g><path fill="none" class="quaternary" style="display:none"/><path fill="none" class="quaternary" style="display:none"/></g><g clip-path="url(#c)" style="display:block"><path fill="#E3E3E3" d="M40-40 .062 40-40-40 1.732-59.799z" class="primary" style="display:block" transform="rotate(45 -353.701 283.491)"/><path fill="#535353" d="M-13.809 13.823c.358.444 1.061.021 1.061.021l27.119-9.059-9.399-9.399-9.772-9.772-8.97 26.965s-.438.75-.039 1.244" class="quaternary" style="display:block" transform="translate(82.993 347.079)"/><g opacity=".5" style="mix-blend-mode:multiply;display:block"><path fill="#E3E3E3" d="m115.294 292.624-17.556-16.681-25.96 76.033-.01.031a4.91 4.91 0 0 0 .465 4.123z" class="primary" opacity="1"/></g><g fill="#E8B72F" style="display:block"><path d="m98.1 275.896 26.764 26.765 29.239 29.238 201.33-200.594-12.958-12.957-27.782-27.783-15.264-15.263z" class="tertiary"/><path fill-opacity=".5" d="m99.227-115.877 17.353 17.353-203.285 202.699-17.431-17.431z" class="tertiary" style="mix-blend-mode:multiply" transform="matrix(.99 0 0 .99 201.301 190.088)"/></g><g fill="#E8682F" style="display:block"><path d="M287.994 86.088c-.12.661 19.836 20.211 29.941 30.317 8.75 8.75 24.655 25.924 26.252 26.252.568.02 34.567-35.48 35.356-35.356-.538-1.125-18.075-18.074-27.112-27.111-9.819-9.82-28.682-28.69-29.457-29.457.53.693-34.35 34.642-34.98 35.355" class="secondary"/><path fill-opacity=".5" d="m109.104-92.001-17.353-17.353-34.98 35.355 16.978 17.353z" class="secondary" style="mix-blend-mode:multiply" transform="translate(231.206 160.32)"/></g><path fill="none" stroke="#535353" stroke-linecap="round" stroke-linejoin="round" stroke-width="7" d="M0-47.5v95" class="quaternary" style="display:block" transform="rotate(45 -85.118 394.742)"/></g><g clip-path="url(#d)" style="display:none"><path class="primary" style="display:none"/><path class="quaternary" style="display:none"/><path class="primary" style="mix-blend-mode:multiply;display:none"/><g style="display:none"><path class="tertiary"/><path class="tertiary" style="mix-blend-mode:multiply"/></g><g style="display:none"><path class="secondary"/><path class="secondary" style="mix-blend-mode:multiply"/></g><path fill="none" class="quaternary" style="display:none"/></g><g clip-path="url(#e)" style="display:none"><path class="primary" style="display:none"/><path class="quaternary" style="display:none"/><path class="primary" style="mix-blend-mode:multiply;display:none"/><g style="display:none"><path class="primary"/><path class="quaternary"/><path class="primary" style="mix-blend-mode:multiply"/></g><g style="display:none"><path class="tertiary"/><path class="tertiary" style="mix-blend-mode:multiply"/></g><g style="display:none"><path class="tertiary"/><path class="tertiary" style="mix-blend-mode:multiply"/></g><g style="display:none"><path class="secondary"/><path class="secondary" style="mix-blend-mode:multiply"/></g><g style="display:none"><path class="secondary"/><path class="secondary" style="mix-blend-mode:multiply"/></g><path fill="none" class="quaternary" style="display:none"/><path fill="none" class="quaternary" style="display:none"/><path fill="none" class="quaternary" style="display:none"/></g></g></svg>